<?xml version="1.0" encoding="utf-8"?><svg fill="none" viewBox="0 0 1440 2560" xmlns="http://www.w3.org/2000/svg"><defs /><g id="Nul 1"><g transform="translate(578,3266)"><animateTransform repeatCount="indefinite" type="translate" attributeName="transform" dur="0.52s" begin="0.44s" calcMode="spline" values="578 3266; 578 2556" keyTimes="0; 1" keySplines="0 0 1 1" fill="freeze" /><g transform="scale(1.83,1.83) translate(0,0)"><g transform="matrix(1,0,0,1,-336.062,-398.908)" id="Calque 1 Silhouettes"><g id="Groupe 4" transform="matrix(1,0,0,1,335.986,508.494)"><path fill="#ef8e45" fill-opacity="1" d="M335.687,-454.416C335.737,-489.21,294.553,-507.627,268.651,-484.394L156.972,-384.219L-1.722,-384.443L-113.113,-484.937C-138.949,-508.244,-180.185,-489.941,-180.235,-455.147L-181.228,361.501C-201.183,339.629,-219.318,302.658,-219.71,240.436C-219.912,208.605,-245.754,182.936,-277.529,182.891C-277.684,182.891,-277.835,182.889,-277.988,182.891C-309.972,183.093,-335.736,209.186,-335.533,241.171C-334.328,431.941,-209.753,498.719,-144.049,507.373C-141.51,507.709,-138.992,507.873,-136.498,507.877C-135.265,507.879,-134.05,507.79,-132.831,507.714L181.211,508.159C240.141,508.243,290.889,473.099,313.547,422.599C327.001,398.975,334.642,367.23,334.642,325.355L334.996,26.531L334.974,26.531L335,26.531L335.687,-454.416Z" /></g><g id="Groupe 3" transform="matrix(1,0,0,1,516.174,329.229)"><path fill="#ffffff" fill-opacity="1" d="M-67.009,0C-67.009,37.008,-37.008,67.009,0,67.008C37.008,67.008,67.009,37.007,67.009,-0.001C67.009,-37.009,37.008,-67.009,0,-67.009C-37.008,-67.009,-67.009,-37.008,-67.009,0Z" /></g><g id="Groupe 2" transform="matrix(1,0,0,1,299.261,329.23)"><path fill="#ffffff" fill-opacity="1" d="M-67.008,0C-67.008,37.008,-37.009,67.009,0,67.008C37.007,67.008,67.008,37.007,67.008,-0.001C67.008,-37.009,37.008,-67.009,0,-67.009C-37.008,-67.009,-67.008,-37.008,-67.008,0Z" /></g><g id="Groupe 1" transform="matrix(1,0,0,1,407.717,410.813)"><path fill="#bf6426" fill-opacity="1" d="M-58.824,-3.369C-52.734,-3.369,-47.795,1.567,-47.795,7.659C-47.795,17.796,-39.551,26.043,-29.412,26.043C-19.272,26.043,-11.029,17.795,-11.029,7.659C-11.029,7.558,-11.002,7.464,-10.999,7.363C-11.002,7.263,-11.029,7.169,-11.029,7.068L-11.029,-13.26C-20.589,-17.689,-27.266,-26.961,-27.266,-33.089C-27.266,-41.38,-15.059,-48.102,0,-48.102C15.06,-48.102,27.268,-41.381,27.268,-33.089C27.268,-26.961,20.59,-17.688,11.03,-13.26L11.03,7.068C11.03,7.169,11.002,7.263,10.999,7.363C11.002,7.464,11.03,7.558,11.03,7.659C11.03,17.795,19.273,26.042,29.412,26.042C39.552,26.042,47.794,17.795,47.794,7.659C47.794,1.566,52.736,-3.37,58.824,-3.37C64.913,-3.37,69.853,1.566,69.853,7.659C69.853,29.959,51.708,48.101,29.412,48.101C17.822,48.102,7.381,43.171,0,35.329C-7.381,43.171,-17.821,48.102,-29.412,48.102C-51.708,48.102,-69.853,29.96,-69.853,7.66C-69.853,1.567,-64.912,-3.369,-58.824,-3.369Z" /></g></g></g></g></g><g id="Nul 1"><g transform="translate(578,3266)"><animateTransform repeatCount="indefinite" type="translate" attributeName="transform" dur="0.52s" begin="0.44s" calcMode="spline" values="578 3266; 578 2556" keyTimes="0; 1" keySplines="0 0 1 1" fill="freeze" /><g transform="scale(1.83,1.83) translate(0,0)"><g id="ojo izq Silhouettes"><g transform="translate(-26.17,-70.771)"><animateTransform repeatCount="indefinite" type="translate" attributeName="transform" dur="1.48s" begin="1.2s" calcMode="spline" values="-26.17 -70.771; -49.121 -84.978; -22.891 -84.978; -26.17 -70.771" keyTimes="0; 0.135; 0.865; 1" keySplines="0 0 1 1; 0 0 1 1; 0 0 1 1" fill="freeze" /><g transform="scale(1,1) translate(-48.044,-48.045)"><g id="Groupe 1" transform="matrix(1,0,0,1,48.044,48.045)"><path fill="#000000" fill-opacity="1" d="M-47.794,0C-47.794,26.396,-26.397,47.794,-0.001,47.794C26.395,47.793,47.794,26.395,47.794,-0.001C47.794,-26.397,26.396,-47.794,0,-47.794C-26.397,-47.794,-47.794,-26.397,-47.794,0Z" /></g></g></g></g></g></g></g><g id="Nul 1"><g transform="translate(578,3266)"><animateTransform repeatCount="indefinite" type="translate" attributeName="transform" dur="0.52s" begin="0.44s" calcMode="spline" values="578 3266; 578 2556" keyTimes="0; 1" keySplines="0 0 1 1" fill="freeze" /><g transform="scale(1.83,1.83) translate(0,0)"><g id="ojo der Silhouettes"><g transform="translate(172.758,-68.586)"><animateTransform repeatCount="indefinite" type="translate" attributeName="transform" dur="1.48s" begin="1.2s" calcMode="spline" values="172.758 -68.586; 166.201 -82.794; 194.616 -83.887; 172.758 -68.586" keyTimes="0; 0.135; 0.865; 1" keySplines="0 0 1 1; 0 0 1 1; 0 0 1 1" fill="freeze" /><g transform="scale(1,1) translate(-48.045,-48.044)"><g id="Groupe 1" transform="matrix(1,0,0,1,48.045,48.045)"><path fill="#000000" fill-opacity="1" d="M-47.794,0C-47.794,26.396,-26.397,47.794,-0.001,47.794C26.395,47.793,47.794,26.395,47.794,-0.001C47.794,-26.397,26.395,-47.794,-0.001,-47.794C-26.397,-47.794,-47.794,-26.397,-47.794,0Z" /></g></g></g></g></g></g></g><g opacity="0" visibility="hidden" id="Nul 1"><animate repeatCount="indefinite" begin="0.44s" calcMode="discrete" fill="freeze" dur="15s" values="visible; visible" keyTimes="0; 1" attributeName="visibility" /><g transform="translate(578,3266)"><animateTransform repeatCount="indefinite" type="translate" attributeName="transform" dur="0.52s" begin="0.44s" calcMode="spline" values="578 3266; 578 2556" keyTimes="0; 1" keySplines="0 0 1 1" fill="freeze" /><g transform="scale(1.83,1.83) translate(0,0)" /></g></g></svg>